<svg xmlns="http://www.w3.org/2000/svg" xmlns:xlink="http://www.w3.org/1999/xlink" width="1920" zoomAndPan="magnify" viewBox="0 0 1440 809.999993" height="1080" preserveAspectRatio="xMidYMid meet" version="1.0"><defs><clipPath id="2fd7fed06b"><path d="M 1394 350 L 1409.972656 350 L 1409.972656 459 L 1394 459 Z M 1394 350 " clip-rule="nonzero"/></clipPath><clipPath id="09a5511e7c"><path d="M 29.972656 283.382812 L 273 283.382812 L 273 526.382812 L 29.972656 526.382812 Z M 29.972656 283.382812 " clip-rule="nonzero"/></clipPath></defs><rect x="-144" width="1728" fill="#ffffff" y="-80.999999" height="971.999992" fill-opacity="1"/><rect x="-144" width="1728" fill="#ffffff" y="-80.999999" height="971.999992" fill-opacity="1"/><path fill="#51b056" d="M 331.5625 451.160156 C 331.5625 455.371094 328.148438 458.75 323.964844 458.75 C 319.753906 458.75 316.367188 455.339844 316.367188 451.160156 L 316.367188 358.574219 C 316.367188 354.367188 319.78125 350.984375 323.964844 350.984375 C 328.179688 350.984375 331.5625 354.394531 331.5625 358.574219 Z M 331.5625 451.160156 " fill-opacity="1" fill-rule="nonzero"/><path fill="#51b056" d="M 365.238281 486.589844 C 365.238281 490.800781 361.824219 494.179688 357.644531 494.179688 C 353.429688 494.179688 350.046875 490.769531 350.046875 486.589844 L 350.046875 323.175781 C 350.046875 318.964844 353.460938 315.585938 357.644531 315.585938 C 361.855469 315.585938 365.238281 318.996094 365.238281 323.175781 Z M 365.238281 486.589844 " fill-opacity="1" fill-rule="nonzero"/><path fill="#51b056" d="M 398.917969 511.140625 C 398.917969 515.351562 395.503906 518.730469 391.320312 518.730469 C 387.105469 518.730469 383.722656 515.320312 383.722656 511.140625 L 383.722656 298.625 C 383.722656 294.414062 387.136719 291.035156 391.320312 291.035156 C 395.535156 291.035156 398.917969 294.445312 398.917969 298.625 Z M 398.917969 511.140625 " fill-opacity="1" fill-rule="nonzero"/><path fill="#51b056" d="M 432.625 486.589844 C 432.625 490.800781 429.210938 494.179688 425.027344 494.179688 C 420.816406 494.179688 417.429688 490.769531 417.429688 486.589844 L 417.429688 323.175781 C 417.429688 318.964844 420.84375 315.585938 425.027344 315.585938 C 429.242188 315.585938 432.625 318.996094 432.625 323.175781 Z M 432.625 486.589844 " fill-opacity="1" fill-rule="nonzero"/><path fill="#51b056" d="M 466.300781 451.160156 C 466.300781 455.371094 462.886719 458.75 458.707031 458.75 C 454.492188 458.75 451.109375 455.339844 451.109375 451.160156 L 451.109375 358.574219 C 451.109375 354.367188 454.523438 350.984375 458.707031 350.984375 C 462.917969 350.984375 466.300781 354.394531 466.300781 358.574219 Z M 466.300781 451.160156 " fill-opacity="1" fill-rule="nonzero"/><path fill="#51b056" d="M 466.332031 451.160156 C 466.332031 455.371094 462.917969 458.75 458.734375 458.75 C 454.523438 458.75 451.140625 455.339844 451.140625 451.160156 L 451.140625 358.574219 C 451.140625 354.367188 454.554688 350.984375 458.734375 350.984375 C 462.949219 350.984375 466.332031 354.394531 466.332031 358.574219 Z M 466.332031 451.160156 " fill-opacity="1" fill-rule="nonzero"/><path fill="#51b056" d="M 500.011719 486.589844 C 500.011719 490.800781 496.597656 494.179688 492.414062 494.179688 C 488.199219 494.179688 484.816406 490.769531 484.816406 486.589844 L 484.816406 323.175781 C 484.816406 318.964844 488.230469 315.585938 492.414062 315.585938 C 496.628906 315.585938 500.011719 318.996094 500.011719 323.175781 Z M 500.011719 486.589844 " fill-opacity="1" fill-rule="nonzero"/><path fill="#51b056" d="M 533.71875 511.140625 C 533.71875 515.351562 530.304688 518.730469 526.121094 518.730469 C 521.90625 518.730469 518.523438 515.320312 518.523438 511.140625 L 518.523438 298.625 C 518.523438 294.414062 521.9375 291.035156 526.121094 291.035156 C 530.335938 291.035156 533.71875 294.445312 533.71875 298.625 Z M 533.71875 511.140625 " fill-opacity="1" fill-rule="nonzero"/><path fill="#51b056" d="M 567.394531 486.589844 C 567.394531 490.800781 563.980469 494.179688 559.800781 494.179688 C 555.585938 494.179688 552.203125 490.769531 552.203125 486.589844 L 552.203125 323.175781 C 552.203125 318.964844 555.617188 315.585938 559.800781 315.585938 C 564.011719 315.585938 567.394531 318.996094 567.394531 323.175781 Z M 567.394531 486.589844 " fill-opacity="1" fill-rule="nonzero"/><path fill="#51b056" d="M 601.074219 451.160156 C 601.074219 455.371094 597.660156 458.75 593.476562 458.75 C 589.261719 458.75 585.878906 455.339844 585.878906 451.160156 L 585.878906 358.574219 C 585.878906 354.367188 589.292969 350.984375 593.476562 350.984375 C 597.691406 350.984375 601.074219 354.394531 601.074219 358.574219 Z M 601.074219 451.160156 " fill-opacity="1" fill-rule="nonzero"/><path fill="#51b056" d="M 601.101562 451.160156 C 601.101562 455.371094 597.691406 458.75 593.507812 458.75 C 589.292969 458.75 585.910156 455.339844 585.910156 451.160156 L 585.910156 358.574219 C 585.910156 354.367188 589.324219 350.984375 593.507812 350.984375 C 597.71875 350.984375 601.101562 354.394531 601.101562 358.574219 Z M 601.101562 451.160156 " fill-opacity="1" fill-rule="nonzero"/><path fill="#51b056" d="M 634.8125 486.589844 C 634.8125 490.800781 631.398438 494.179688 627.214844 494.179688 C 623 494.179688 619.617188 490.769531 619.617188 486.589844 L 619.617188 323.175781 C 619.617188 318.964844 623.03125 315.585938 627.214844 315.585938 C 631.429688 315.585938 634.8125 318.996094 634.8125 323.175781 Z M 634.8125 486.589844 " fill-opacity="1" fill-rule="nonzero"/><path fill="#51b056" d="M 668.488281 511.140625 C 668.488281 515.351562 665.074219 518.730469 660.890625 518.730469 C 656.679688 518.730469 653.296875 515.320312 653.296875 511.140625 L 653.296875 298.625 C 653.296875 294.414062 656.710938 291.035156 660.890625 291.035156 C 665.105469 291.035156 668.488281 294.445312 668.488281 298.625 Z M 668.488281 511.140625 " fill-opacity="1" fill-rule="nonzero"/><path fill="#51b056" d="M 702.167969 486.589844 C 702.167969 490.800781 698.753906 494.179688 694.570312 494.179688 C 690.355469 494.179688 686.972656 490.769531 686.972656 486.589844 L 686.972656 323.175781 C 686.972656 318.964844 690.386719 315.585938 694.570312 315.585938 C 698.78125 315.585938 702.167969 318.996094 702.167969 323.175781 Z M 702.167969 486.589844 " fill-opacity="1" fill-rule="nonzero"/><path fill="#51b056" d="M 735.875 451.160156 C 735.875 455.371094 732.460938 458.75 728.277344 458.75 C 724.0625 458.75 720.679688 455.339844 720.679688 451.160156 L 720.679688 358.574219 C 720.679688 354.367188 724.09375 350.984375 728.277344 350.984375 C 732.492188 350.984375 735.875 354.394531 735.875 358.574219 Z M 735.875 451.160156 " fill-opacity="1" fill-rule="nonzero"/><path fill="#51b056" d="M 735.90625 451.160156 C 735.90625 455.371094 732.492188 458.75 728.308594 458.75 C 724.09375 458.75 720.710938 455.339844 720.710938 451.160156 L 720.710938 358.574219 C 720.710938 354.367188 724.125 350.984375 728.308594 350.984375 C 732.523438 350.984375 735.90625 354.394531 735.90625 358.574219 Z M 735.90625 451.160156 " fill-opacity="1" fill-rule="nonzero"/><path fill="#51b056" d="M 769.582031 486.589844 C 769.582031 490.800781 766.167969 494.179688 761.984375 494.179688 C 757.773438 494.179688 754.390625 490.769531 754.390625 486.589844 L 754.390625 323.175781 C 754.390625 318.964844 757.804688 315.585938 761.984375 315.585938 C 766.199219 315.585938 769.582031 318.996094 769.582031 323.175781 Z M 769.582031 486.589844 " fill-opacity="1" fill-rule="nonzero"/><path fill="#51b056" d="M 803.257812 511.140625 C 803.257812 515.351562 799.847656 518.730469 795.664062 518.730469 C 791.449219 518.730469 788.066406 515.320312 788.066406 511.140625 L 788.066406 298.625 C 788.066406 294.414062 791.480469 291.035156 795.664062 291.035156 C 799.875 291.035156 803.257812 294.445312 803.257812 298.625 Z M 803.257812 511.140625 " fill-opacity="1" fill-rule="nonzero"/><path fill="#51b056" d="M 836.96875 486.589844 C 836.96875 490.800781 833.554688 494.179688 829.371094 494.179688 C 825.15625 494.179688 821.773438 490.769531 821.773438 486.589844 L 821.773438 323.175781 C 821.773438 318.964844 825.1875 315.585938 829.371094 315.585938 C 833.585938 315.585938 836.96875 318.996094 836.96875 323.175781 Z M 836.96875 486.589844 " fill-opacity="1" fill-rule="nonzero"/><path fill="#51b056" d="M 870.644531 451.160156 C 870.644531 455.371094 867.230469 458.75 863.046875 458.75 C 858.835938 458.75 855.453125 455.339844 855.453125 451.160156 L 855.453125 358.574219 C 855.453125 354.367188 858.867188 350.984375 863.046875 350.984375 C 867.261719 350.984375 870.644531 354.394531 870.644531 358.574219 Z M 870.644531 451.160156 " fill-opacity="1" fill-rule="nonzero"/><path fill="#51b056" d="M 870.644531 451.160156 C 870.644531 455.371094 867.230469 458.75 863.046875 458.75 C 858.835938 458.75 855.453125 455.339844 855.453125 451.160156 L 855.453125 358.574219 C 855.453125 354.367188 858.867188 350.984375 863.046875 350.984375 C 867.261719 350.984375 870.644531 354.394531 870.644531 358.574219 Z M 870.644531 451.160156 " fill-opacity="1" fill-rule="nonzero"/><path fill="#51b056" d="M 904.351562 486.589844 C 904.351562 490.800781 900.9375 494.179688 896.757812 494.179688 C 892.542969 494.179688 889.160156 490.769531 889.160156 486.589844 L 889.160156 323.175781 C 889.160156 318.964844 892.574219 315.585938 896.757812 315.585938 C 900.96875 315.585938 904.351562 318.996094 904.351562 323.175781 Z M 904.351562 486.589844 " fill-opacity="1" fill-rule="nonzero"/><path fill="#51b056" d="M 938.03125 511.140625 C 938.03125 515.351562 934.617188 518.730469 930.433594 518.730469 C 926.21875 518.730469 922.835938 515.320312 922.835938 511.140625 L 922.835938 298.625 C 922.835938 294.414062 926.25 291.035156 930.433594 291.035156 C 934.648438 291.035156 938.03125 294.445312 938.03125 298.625 Z M 938.03125 511.140625 " fill-opacity="1" fill-rule="nonzero"/><path fill="#51b056" d="M 971.707031 486.589844 C 971.707031 490.800781 968.292969 494.179688 964.109375 494.179688 C 959.898438 494.179688 956.515625 490.769531 956.515625 486.589844 L 956.515625 323.175781 C 956.515625 318.964844 959.929688 315.585938 964.109375 315.585938 C 968.324219 315.585938 971.707031 318.996094 971.707031 323.175781 Z M 971.707031 486.589844 " fill-opacity="1" fill-rule="nonzero"/><path fill="#141311" d="M 1005.414062 451.160156 C 1005.414062 455.371094 1002 458.75 997.820312 458.75 C 993.605469 458.75 990.222656 455.339844 990.222656 451.160156 L 990.222656 358.574219 C 990.222656 354.367188 993.636719 350.984375 997.820312 350.984375 C 1002.03125 350.984375 1005.414062 354.394531 1005.414062 358.574219 Z M 1005.414062 451.160156 " fill-opacity="1" fill-rule="nonzero"/><path fill="#141311" d="M 1005.445312 451.160156 C 1005.445312 455.371094 1002.03125 458.75 997.851562 458.75 C 993.636719 458.75 990.253906 455.339844 990.253906 451.160156 L 990.253906 358.574219 C 990.253906 354.367188 993.667969 350.984375 997.851562 350.984375 C 1002.0625 350.984375 1005.445312 354.394531 1005.445312 358.574219 Z M 1005.445312 451.160156 " fill-opacity="1" fill-rule="nonzero"/><path fill="#141311" d="M 1039.125 486.589844 C 1039.125 490.800781 1035.710938 494.179688 1031.527344 494.179688 C 1027.3125 494.179688 1023.929688 490.769531 1023.929688 486.589844 L 1023.929688 323.175781 C 1023.929688 318.964844 1027.34375 315.585938 1031.527344 315.585938 C 1035.742188 315.585938 1039.125 318.996094 1039.125 323.175781 Z M 1039.125 486.589844 " fill-opacity="1" fill-rule="nonzero"/><path fill="#141311" d="M 1072.800781 511.140625 C 1072.800781 515.351562 1069.386719 518.730469 1065.203125 518.730469 C 1060.992188 518.730469 1057.609375 515.320312 1057.609375 511.140625 L 1057.609375 298.625 C 1057.609375 294.414062 1061.019531 291.035156 1065.203125 291.035156 C 1069.417969 291.035156 1072.800781 294.445312 1072.800781 298.625 Z M 1072.800781 511.140625 " fill-opacity="1" fill-rule="nonzero"/><path fill="#141311" d="M 1106.507812 486.589844 C 1106.507812 490.800781 1103.09375 494.179688 1098.914062 494.179688 C 1094.699219 494.179688 1091.316406 490.769531 1091.316406 486.589844 L 1091.316406 323.175781 C 1091.316406 318.964844 1094.730469 315.585938 1098.914062 315.585938 C 1103.125 315.585938 1106.507812 318.996094 1106.507812 323.175781 Z M 1106.507812 486.589844 " fill-opacity="1" fill-rule="nonzero"/><path fill="#141311" d="M 1140.1875 451.160156 C 1140.1875 455.371094 1136.773438 458.75 1132.589844 458.75 C 1128.375 458.75 1124.992188 455.339844 1124.992188 451.160156 L 1124.992188 358.574219 C 1124.992188 354.367188 1128.40625 350.984375 1132.589844 350.984375 C 1136.804688 350.984375 1140.1875 354.394531 1140.1875 358.574219 Z M 1140.1875 451.160156 " fill-opacity="1" fill-rule="nonzero"/><path fill="#141311" d="M 1140.21875 451.160156 C 1140.21875 455.371094 1136.804688 458.75 1132.621094 458.75 C 1128.40625 458.75 1125.023438 455.339844 1125.023438 451.160156 L 1125.023438 358.574219 C 1125.023438 354.367188 1128.4375 350.984375 1132.621094 350.984375 C 1136.832031 350.984375 1140.21875 354.394531 1140.21875 358.574219 Z M 1140.21875 451.160156 " fill-opacity="1" fill-rule="nonzero"/><path fill="#141311" d="M 1173.894531 486.589844 C 1173.894531 490.800781 1170.480469 494.179688 1166.296875 494.179688 C 1162.085938 494.179688 1158.699219 490.769531 1158.699219 486.589844 L 1158.699219 323.175781 C 1158.699219 318.964844 1162.113281 315.585938 1166.296875 315.585938 C 1170.511719 315.585938 1173.894531 318.996094 1173.894531 323.175781 Z M 1173.894531 486.589844 " fill-opacity="1" fill-rule="nonzero"/><path fill="#141311" d="M 1207.601562 511.140625 C 1207.601562 515.351562 1204.1875 518.730469 1200.003906 518.730469 C 1195.792969 518.730469 1192.410156 515.320312 1192.410156 511.140625 L 1192.410156 298.625 C 1192.410156 294.414062 1195.824219 291.035156 1200.003906 291.035156 C 1204.21875 291.035156 1207.601562 294.445312 1207.601562 298.625 Z M 1207.601562 511.140625 " fill-opacity="1" fill-rule="nonzero"/><path fill="#141311" d="M 1241.28125 486.589844 C 1241.28125 490.800781 1237.867188 494.179688 1233.683594 494.179688 C 1229.46875 494.179688 1226.085938 490.769531 1226.085938 486.589844 L 1226.085938 323.175781 C 1226.085938 318.964844 1229.5 315.585938 1233.683594 315.585938 C 1237.894531 315.585938 1241.28125 318.996094 1241.28125 323.175781 Z M 1241.28125 486.589844 " fill-opacity="1" fill-rule="nonzero"/><path fill="#141311" d="M 1274.957031 451.160156 C 1274.957031 455.371094 1271.542969 458.75 1267.359375 458.75 C 1263.148438 458.75 1259.761719 455.339844 1259.761719 451.160156 L 1259.761719 358.574219 C 1259.761719 354.367188 1263.175781 350.984375 1267.359375 350.984375 C 1271.574219 350.984375 1274.957031 354.394531 1274.957031 358.574219 Z M 1274.957031 451.160156 " fill-opacity="1" fill-rule="nonzero"/><path fill="#141311" d="M 1274.988281 451.160156 C 1274.988281 455.371094 1271.574219 458.75 1267.390625 458.75 C 1263.175781 458.75 1259.792969 455.339844 1259.792969 451.160156 L 1259.792969 358.574219 C 1259.792969 354.367188 1263.207031 350.984375 1267.390625 350.984375 C 1271.605469 350.984375 1274.988281 354.394531 1274.988281 358.574219 Z M 1274.988281 451.160156 " fill-opacity="1" fill-rule="nonzero"/><path fill="#141311" d="M 1308.695312 486.589844 C 1308.695312 490.800781 1305.28125 494.179688 1301.097656 494.179688 C 1296.886719 494.179688 1293.503906 490.769531 1293.503906 486.589844 L 1293.503906 323.175781 C 1293.503906 318.964844 1296.917969 315.585938 1301.097656 315.585938 C 1305.3125 315.585938 1308.695312 318.996094 1308.695312 323.175781 Z M 1308.695312 486.589844 " fill-opacity="1" fill-rule="nonzero"/><path fill="#141311" d="M 1342.371094 511.140625 C 1342.371094 515.351562 1338.960938 518.730469 1334.777344 518.730469 C 1330.5625 518.730469 1327.179688 515.320312 1327.179688 511.140625 L 1327.179688 298.625 C 1327.179688 294.414062 1330.59375 291.035156 1334.777344 291.035156 C 1338.988281 291.035156 1342.371094 294.445312 1342.371094 298.625 Z M 1342.371094 511.140625 " fill-opacity="1" fill-rule="nonzero"/><path fill="#141311" d="M 1376.050781 486.589844 C 1376.050781 490.800781 1372.636719 494.179688 1368.453125 494.179688 C 1364.238281 494.179688 1360.855469 490.769531 1360.855469 486.589844 L 1360.855469 323.175781 C 1360.855469 318.964844 1364.269531 315.585938 1368.453125 315.585938 C 1372.667969 315.585938 1376.050781 318.996094 1376.050781 323.175781 Z M 1376.050781 486.589844 " fill-opacity="1" fill-rule="nonzero"/><g clip-path="url(#2fd7fed06b)"><path fill="#141311" d="M 1409.757812 451.160156 C 1409.757812 455.371094 1406.34375 458.75 1402.160156 458.75 C 1397.949219 458.75 1394.566406 455.339844 1394.566406 451.160156 L 1394.566406 358.574219 C 1394.566406 354.367188 1397.980469 350.984375 1402.160156 350.984375 C 1406.375 350.984375 1409.757812 354.394531 1409.757812 358.574219 Z M 1409.757812 451.160156 " fill-opacity="1" fill-rule="nonzero"/></g><g clip-path="url(#09a5511e7c)"><path fill="#51b056" d="M 272.851562 404.882812 C 272.851562 406.871094 272.800781 408.855469 272.703125 410.839844 C 272.605469 412.824219 272.460938 414.804688 272.265625 416.78125 C 272.070312 418.757812 271.828125 420.726562 271.535156 422.691406 C 271.242188 424.65625 270.902344 426.613281 270.515625 428.5625 C 270.128906 430.511719 269.691406 432.449219 269.210938 434.375 C 268.726562 436.300781 268.195312 438.214844 267.617188 440.117188 C 267.042969 442.019531 266.417969 443.902344 265.75 445.773438 C 265.078125 447.644531 264.363281 449.496094 263.601562 451.332031 C 262.839844 453.167969 262.035156 454.984375 261.1875 456.777344 C 260.335938 458.574219 259.441406 460.347656 258.503906 462.101562 C 257.566406 463.851562 256.589844 465.578125 255.566406 467.28125 C 254.542969 468.988281 253.480469 470.664062 252.375 472.316406 C 251.273438 473.96875 250.128906 475.589844 248.941406 477.1875 C 247.757812 478.78125 246.535156 480.347656 245.273438 481.882812 C 244.011719 483.417969 242.714844 484.921875 241.378906 486.394531 C 240.042969 487.867188 238.675781 489.304688 237.269531 490.710938 C 235.863281 492.113281 234.421875 493.484375 232.949219 494.816406 C 231.476562 496.152344 229.972656 497.449219 228.433594 498.707031 C 226.898438 499.96875 225.332031 501.191406 223.734375 502.375 C 222.136719 503.558594 220.511719 504.699219 218.859375 505.804688 C 217.207031 506.90625 215.527344 507.96875 213.820312 508.992188 C 212.117188 510.011719 210.386719 510.992188 208.632812 511.929688 C 206.878906 512.863281 205.105469 513.757812 203.308594 514.605469 C 201.507812 515.457031 199.691406 516.261719 197.855469 517.019531 C 196.019531 517.78125 194.164062 518.496094 192.292969 519.164062 C 190.421875 519.835938 188.535156 520.457031 186.628906 521.035156 C 184.726562 521.609375 182.8125 522.140625 180.882812 522.621094 C 178.957031 523.105469 177.015625 523.539062 175.066406 523.929688 C 173.117188 524.316406 171.15625 524.65625 169.191406 524.945312 C 167.222656 525.238281 165.25 525.480469 163.273438 525.675781 C 161.292969 525.871094 159.3125 526.015625 157.328125 526.113281 C 155.339844 526.210938 153.355469 526.261719 151.367188 526.261719 C 149.378906 526.261719 147.390625 526.210938 145.40625 526.113281 C 143.417969 526.015625 141.4375 525.871094 139.457031 525.675781 C 137.480469 525.480469 135.507812 525.238281 133.539062 524.945312 C 131.574219 524.65625 129.617188 524.316406 127.664062 523.929688 C 125.714844 523.539062 123.777344 523.105469 121.847656 522.621094 C 119.917969 522.140625 118.003906 521.609375 116.101562 521.035156 C 114.199219 520.457031 112.3125 519.835938 110.4375 519.164062 C 108.566406 518.496094 106.710938 517.78125 104.875 517.019531 C 103.039062 516.261719 101.222656 515.457031 99.425781 514.605469 C 97.628906 513.757812 95.851562 512.863281 94.097656 511.929688 C 92.34375 510.992188 90.617188 510.011719 88.910156 508.992188 C 87.203125 507.96875 85.527344 506.90625 83.871094 505.804688 C 82.21875 504.699219 80.59375 503.558594 78.996094 502.375 C 77.402344 501.191406 75.832031 499.96875 74.296875 498.707031 C 72.761719 497.449219 71.253906 496.152344 69.78125 494.816406 C 68.308594 493.484375 66.871094 492.113281 65.464844 490.710938 C 64.058594 489.304688 62.6875 487.867188 61.351562 486.394531 C 60.015625 484.921875 58.71875 483.417969 57.457031 481.882812 C 56.195312 480.347656 54.972656 478.78125 53.789062 477.1875 C 52.605469 475.589844 51.460938 473.96875 50.355469 472.316406 C 49.25 470.664062 48.1875 468.988281 47.164062 467.28125 C 46.144531 465.578125 45.164062 463.851562 44.226562 462.101562 C 43.289062 460.347656 42.394531 458.574219 41.546875 456.777344 C 40.695312 454.984375 39.890625 453.167969 39.128906 451.332031 C 38.367188 449.496094 37.652344 447.644531 36.984375 445.773438 C 36.3125 443.902344 35.691406 442.019531 35.113281 440.117188 C 34.535156 438.214844 34.003906 436.300781 33.523438 434.375 C 33.039062 432.449219 32.605469 430.511719 32.214844 428.5625 C 31.828125 426.613281 31.488281 424.65625 31.195312 422.691406 C 30.90625 420.726562 30.660156 418.757812 30.464844 416.78125 C 30.273438 414.804688 30.125 412.824219 30.027344 410.839844 C 29.929688 408.855469 29.882812 406.871094 29.882812 404.882812 C 29.882812 402.894531 29.929688 400.910156 30.027344 398.925781 C 30.125 396.941406 30.273438 394.960938 30.464844 392.984375 C 30.660156 391.007812 30.90625 389.039062 31.195312 387.074219 C 31.488281 385.109375 31.828125 383.152344 32.214844 381.203125 C 32.605469 379.253906 33.039062 377.316406 33.523438 375.390625 C 34.003906 373.464844 34.535156 371.550781 35.113281 369.648438 C 35.691406 367.746094 36.3125 365.863281 36.984375 363.992188 C 37.652344 362.121094 38.367188 360.269531 39.128906 358.433594 C 39.890625 356.597656 40.695312 354.78125 41.546875 352.988281 C 42.394531 351.191406 43.289062 349.417969 44.226562 347.667969 C 45.164062 345.914062 46.144531 344.1875 47.164062 342.484375 C 48.1875 340.777344 49.25 339.101562 50.355469 337.449219 C 51.460938 335.796875 52.605469 334.175781 53.789062 332.578125 C 54.972656 330.984375 56.195312 329.417969 57.457031 327.882812 C 58.71875 326.347656 60.015625 324.84375 61.351562 323.371094 C 62.6875 321.898438 64.058594 320.460938 65.464844 319.054688 C 66.871094 317.652344 68.308594 316.28125 69.78125 314.949219 C 71.253906 313.613281 72.761719 312.316406 74.296875 311.058594 C 75.832031 309.796875 77.402344 308.574219 78.996094 307.390625 C 80.59375 306.207031 82.21875 305.066406 83.871094 303.960938 C 85.527344 302.859375 87.203125 301.796875 88.910156 300.773438 C 90.617188 299.753906 92.34375 298.773438 94.097656 297.835938 C 95.851562 296.902344 97.628906 296.007812 99.425781 295.160156 C 101.222656 294.308594 103.039062 293.503906 104.875 292.746094 C 106.710938 291.984375 108.566406 291.269531 110.4375 290.601562 C 112.3125 289.933594 114.199219 289.308594 116.101562 288.730469 C 118.003906 288.15625 119.917969 287.625 121.847656 287.144531 C 123.777344 286.660156 125.714844 286.226562 127.664062 285.835938 C 129.613281 285.449219 131.574219 285.109375 133.539062 284.820312 C 135.507812 284.527344 137.480469 284.285156 139.457031 284.089844 C 141.4375 283.894531 143.417969 283.75 145.40625 283.652344 C 147.390625 283.554688 149.378906 283.503906 151.367188 283.503906 C 153.355469 283.503906 155.339844 283.554688 157.328125 283.652344 C 159.3125 283.75 161.292969 283.894531 163.273438 284.089844 C 165.25 284.285156 167.222656 284.527344 169.191406 284.820312 C 171.15625 285.109375 173.117188 285.449219 175.066406 285.835938 C 177.015625 286.226562 178.957031 286.660156 180.882812 287.144531 C 182.8125 287.625 184.726562 288.15625 186.628906 288.730469 C 188.535156 289.308594 190.421875 289.933594 192.292969 290.601562 C 194.164062 291.269531 196.019531 291.984375 197.855469 292.746094 C 199.691406 293.503906 201.507812 294.308594 203.308594 295.160156 C 205.105469 296.007812 206.878906 296.902344 208.632812 297.835938 C 210.386719 298.773438 212.117188 299.753906 213.820312 300.773438 C 215.527344 301.796875 217.207031 302.859375 218.859375 303.960938 C 220.511719 305.066406 222.136719 306.207031 223.734375 307.390625 C 225.332031 308.574219 226.898438 309.796875 228.433594 311.058594 C 229.972656 312.316406 231.476562 313.613281 232.949219 314.949219 C 234.421875 316.28125 235.863281 317.652344 237.269531 319.054688 C 238.675781 320.460938 240.042969 321.898438 241.378906 323.371094 C 242.714844 324.84375 244.011719 326.347656 245.273438 327.882812 C 246.535156 329.417969 247.757812 330.984375 248.941406 332.578125 C 250.128906 334.175781 251.273438 335.796875 252.375 337.449219 C 253.480469 339.101562 254.542969 340.777344 255.566406 342.484375 C 256.589844 344.1875 257.566406 345.914062 258.503906 347.664062 C 259.441406 349.417969 260.335938 351.191406 261.1875 352.988281 C 262.035156 354.78125 262.839844 356.597656 263.601562 358.433594 C 264.363281 360.269531 265.078125 362.121094 265.75 363.992188 C 266.417969 365.863281 267.042969 367.746094 267.617188 369.648438 C 268.195312 371.550781 268.726562 373.464844 269.210938 375.390625 C 269.691406 377.316406 270.128906 379.253906 270.515625 381.203125 C 270.902344 383.152344 271.242188 385.109375 271.535156 387.074219 C 271.828125 389.039062 272.070312 391.007812 272.265625 392.984375 C 272.460938 394.960938 272.605469 396.941406 272.703125 398.925781 C 272.800781 400.910156 272.851562 402.894531 272.851562 404.882812 Z M 272.851562 404.882812 " fill-opacity="1" fill-rule="nonzero"/></g><path fill="#141311" d="M 117.871094 363.613281 L 117.871094 446.152344 C 117.871094 450.359375 122.515625 452.910156 126.054688 450.667969 L 191.746094 409.398438 C 195.070312 407.308594 195.070312 402.457031 191.746094 400.367188 L 126.085938 359.097656 C 122.515625 356.855469 117.871094 359.40625 117.871094 363.613281 Z M 117.871094 363.613281 " fill-opacity="1" fill-rule="nonzero"/></svg>