<svg xmlns="http://www.w3.org/2000/svg" xmlns:xlink="http://www.w3.org/1999/xlink" width="1920" zoomAndPan="magnify" viewBox="0 0 1440 809.999993" height="1080" preserveAspectRatio="xMidYMid meet" version="1.0"><defs><clipPath id="34a66a44d2"><path d="M 547.464844 232.464844 L 892.464844 232.464844 L 892.464844 577.464844 L 547.464844 577.464844 Z M 547.464844 232.464844 " clip-rule="nonzero"/></clipPath></defs><rect x="-144" width="1728" fill="#ffffff" y="-80.999999" height="971.999992" fill-opacity="1"/><rect x="-144" width="1728" fill="#ffffff" y="-80.999999" height="971.999992" fill-opacity="1"/><g clip-path="url(#34a66a44d2)"><path fill="#ff0000" d="M 892.472656 404.96875 C 892.472656 407.792969 892.40625 410.613281 892.265625 413.433594 C 892.128906 416.253906 891.917969 419.070312 891.644531 421.878906 C 891.367188 424.6875 891.019531 427.488281 890.605469 430.28125 C 890.191406 433.074219 889.710938 435.855469 889.160156 438.625 C 888.609375 441.394531 887.988281 444.148438 887.304688 446.886719 C 886.617188 449.625 885.863281 452.34375 885.046875 455.046875 C 884.226562 457.746094 883.339844 460.425781 882.390625 463.085938 C 881.4375 465.742188 880.421875 468.375 879.34375 470.984375 C 878.261719 473.59375 877.117188 476.171875 875.910156 478.726562 C 874.703125 481.277344 873.433594 483.796875 872.105469 486.289062 C 870.773438 488.777344 869.382812 491.234375 867.929688 493.65625 C 866.480469 496.078125 864.96875 498.460938 863.402344 500.808594 C 861.832031 503.15625 860.207031 505.464844 858.527344 507.730469 C 856.84375 510 855.109375 512.222656 853.316406 514.40625 C 851.527344 516.585938 849.683594 518.726562 847.785156 520.816406 C 845.890625 522.910156 843.945312 524.953125 841.949219 526.949219 C 839.953125 528.945312 837.910156 530.890625 835.816406 532.785156 C 833.726562 534.683594 831.585938 536.527344 829.40625 538.316406 C 827.222656 540.109375 825 541.84375 822.730469 543.527344 C 820.464844 545.207031 818.15625 546.832031 815.808594 548.402344 C 813.460938 549.96875 811.078125 551.480469 808.65625 552.929688 C 806.234375 554.382812 803.777344 555.773438 801.289062 557.105469 C 798.796875 558.433594 796.277344 559.703125 793.726562 560.910156 C 791.171875 562.117188 788.59375 563.261719 785.984375 564.34375 C 783.375 565.421875 780.742188 566.4375 778.085938 567.390625 C 775.425781 568.339844 772.746094 569.226562 770.046875 570.046875 C 767.34375 570.863281 764.625 571.617188 761.886719 572.304688 C 759.148438 572.988281 756.394531 573.609375 753.625 574.160156 C 750.855469 574.710938 748.074219 575.191406 745.28125 575.605469 C 742.488281 576.019531 739.6875 576.367188 736.878906 576.644531 C 734.070312 576.917969 731.253906 577.128906 728.433594 577.265625 C 725.613281 577.40625 722.792969 577.472656 719.96875 577.472656 C 717.148438 577.472656 714.324219 577.40625 711.507812 577.265625 C 708.6875 577.128906 705.871094 576.917969 703.0625 576.644531 C 700.253906 576.367188 697.453125 576.019531 694.660156 575.605469 C 691.867188 575.191406 689.085938 574.710938 686.316406 574.160156 C 683.546875 573.609375 680.792969 572.988281 678.054688 572.304688 C 675.316406 571.617188 672.597656 570.863281 669.894531 570.046875 C 667.195312 569.226562 664.515625 568.339844 661.855469 567.390625 C 659.199219 566.4375 656.566406 565.421875 653.957031 564.34375 C 651.347656 563.261719 648.769531 562.117188 646.214844 560.910156 C 643.664062 559.703125 641.144531 558.433594 638.652344 557.105469 C 636.164062 555.773438 633.707031 554.382812 631.285156 552.929688 C 628.863281 551.480469 626.480469 549.96875 624.132812 548.402344 C 621.785156 546.832031 619.476562 545.207031 617.210938 543.527344 C 614.941406 541.84375 612.71875 540.109375 610.535156 538.316406 C 608.351562 536.527344 606.214844 534.683594 604.125 532.785156 C 602.03125 530.890625 599.988281 528.945312 597.992188 526.949219 C 595.996094 524.953125 594.050781 522.910156 592.152344 520.816406 C 590.257812 518.726562 588.414062 516.585938 586.625 514.40625 C 584.832031 512.222656 583.097656 510 581.414062 507.730469 C 579.734375 505.464844 578.109375 503.15625 576.539062 500.808594 C 574.972656 498.460938 573.460938 496.078125 572.011719 493.65625 C 570.558594 491.234375 569.167969 488.777344 567.835938 486.289062 C 566.503906 483.796875 565.238281 481.277344 564.03125 478.726562 C 562.824219 476.171875 561.679688 473.59375 560.597656 470.984375 C 559.519531 468.375 558.503906 465.742188 557.550781 463.085938 C 556.601562 460.425781 555.714844 457.746094 554.894531 455.046875 C 554.074219 452.34375 553.324219 449.625 552.636719 446.886719 C 551.953125 444.148438 551.332031 441.394531 550.78125 438.625 C 550.230469 435.855469 549.75 433.074219 549.335938 430.28125 C 548.921875 427.488281 548.574219 424.6875 548.296875 421.878906 C 548.023438 419.070312 547.8125 416.253906 547.675781 413.433594 C 547.535156 410.613281 547.46875 407.792969 547.46875 404.96875 C 547.46875 402.148438 547.535156 399.324219 547.675781 396.507812 C 547.8125 393.6875 548.023438 390.871094 548.296875 388.0625 C 548.574219 385.253906 548.921875 382.453125 549.335938 379.660156 C 549.75 376.867188 550.230469 374.085938 550.78125 371.316406 C 551.332031 368.546875 551.953125 365.792969 552.636719 363.054688 C 553.324219 360.316406 554.074219 357.597656 554.894531 354.894531 C 555.714844 352.195312 556.601562 349.515625 557.550781 346.855469 C 558.503906 344.199219 559.519531 341.566406 560.597656 338.957031 C 561.679688 336.347656 562.824219 333.769531 564.03125 331.214844 C 565.238281 328.664062 566.503906 326.144531 567.835938 323.652344 C 569.167969 321.164062 570.558594 318.707031 572.011719 316.285156 C 573.460938 313.863281 574.972656 311.480469 576.539062 309.132812 C 578.109375 306.785156 579.734375 304.476562 581.414062 302.210938 C 583.097656 299.941406 584.832031 297.71875 586.625 295.535156 C 588.414062 293.355469 590.257812 291.214844 592.152344 289.125 C 594.050781 287.03125 595.996094 284.988281 597.992188 282.992188 C 599.988281 280.996094 602.03125 279.050781 604.125 277.15625 C 606.214844 275.257812 608.351562 273.414062 610.535156 271.625 C 612.71875 269.832031 614.941406 268.097656 617.210938 266.414062 C 619.476562 264.734375 621.785156 263.109375 624.132812 261.539062 C 626.480469 259.972656 628.863281 258.460938 631.285156 257.011719 C 633.707031 255.558594 636.164062 254.167969 638.652344 252.835938 C 641.144531 251.503906 643.664062 250.238281 646.214844 249.03125 C 648.769531 247.824219 651.347656 246.679688 653.957031 245.597656 C 656.566406 244.519531 659.199219 243.503906 661.855469 242.550781 C 664.515625 241.601562 667.195312 240.714844 669.894531 239.894531 C 672.597656 239.074219 675.316406 238.324219 678.054688 237.636719 C 680.792969 236.953125 683.546875 236.332031 686.316406 235.78125 C 689.085938 235.230469 691.867188 234.75 694.660156 234.335938 C 697.453125 233.921875 700.253906 233.574219 703.0625 233.296875 C 705.871094 233.023438 708.6875 232.8125 711.507812 232.675781 C 714.324219 232.535156 717.148438 232.46875 719.96875 232.46875 C 722.792969 232.46875 725.613281 232.535156 728.433594 232.675781 C 731.253906 232.8125 734.070312 233.023438 736.878906 233.296875 C 739.6875 233.574219 742.488281 233.921875 745.28125 234.335938 C 748.074219 234.75 750.855469 235.230469 753.625 235.78125 C 756.394531 236.332031 759.148438 236.953125 761.886719 237.636719 C 764.625 238.324219 767.34375 239.074219 770.046875 239.894531 C 772.746094 240.714844 775.425781 241.601562 778.085938 242.550781 C 780.742188 243.503906 783.375 244.519531 785.984375 245.597656 C 788.59375 246.679688 791.171875 247.824219 793.726562 249.03125 C 796.277344 250.238281 798.796875 251.503906 801.289062 252.835938 C 803.777344 254.167969 806.234375 255.558594 808.65625 257.011719 C 811.078125 258.460938 813.460938 259.972656 815.808594 261.539062 C 818.15625 263.109375 820.464844 264.734375 822.730469 266.414062 C 825 268.097656 827.222656 269.832031 829.40625 271.625 C 831.585938 273.414062 833.726562 275.257812 835.816406 277.15625 C 837.910156 279.050781 839.953125 280.996094 841.949219 282.992188 C 843.945312 284.988281 845.890625 287.03125 847.785156 289.125 C 849.683594 291.214844 851.527344 293.355469 853.316406 295.535156 C 855.109375 297.71875 856.84375 299.941406 858.527344 302.210938 C 860.207031 304.476562 861.832031 306.785156 863.402344 309.132812 C 864.96875 311.480469 866.480469 313.863281 867.929688 316.285156 C 869.382812 318.707031 870.773438 321.164062 872.105469 323.652344 C 873.433594 326.144531 874.703125 328.664062 875.910156 331.214844 C 877.117188 333.769531 878.261719 336.347656 879.34375 338.957031 C 880.421875 341.566406 881.4375 344.199219 882.390625 346.855469 C 883.339844 349.515625 884.226562 352.195312 885.046875 354.894531 C 885.863281 357.597656 886.617188 360.316406 887.304688 363.054688 C 887.988281 365.792969 888.609375 368.546875 889.160156 371.316406 C 889.710938 374.085938 890.191406 376.867188 890.605469 379.660156 C 891.019531 382.453125 891.367188 385.253906 891.644531 388.0625 C 891.917969 390.871094 892.128906 393.6875 892.265625 396.507812 C 892.40625 399.324219 892.472656 402.148438 892.472656 404.96875 Z M 892.472656 404.96875 " fill-opacity="1" fill-rule="nonzero"/></g><path fill="#e8e8e8" d="M 803.121094 380.53125 L 697.027344 319.277344 C 678.207031 308.417969 654.695312 321.988281 654.695312 343.71875 L 654.695312 466.222656 C 654.695312 487.945312 678.210938 501.523438 697.027344 490.664062 L 803.121094 429.410156 C 821.933594 418.546875 821.933594 391.394531 803.121094 380.53125 Z M 803.121094 380.53125 " fill-opacity="1" fill-rule="nonzero"/></svg>